<?xml version="1.0" encoding="UTF-8" standalone="no"?>
<!DOCTYPE svg PUBLIC "-//W3C//DTD SVG 1.1//EN"
 "http://www.w3.org/Graphics/SVG/1.1/DTD/svg11.dtd">
<!-- Generated by graphviz version 2.40.1 (20161225.0304)
 -->
<!-- Title: dbname Pages: 1 -->
<svg width="688pt" height="646pt"
 viewBox="0.00 0.00 688.00 646.00" xmlns="http://www.w3.org/2000/svg" xmlns:xlink="http://www.w3.org/1999/xlink">
<g id="graph0" class="graph" transform="scale(1 1) rotate(0) translate(4 642)">
<title>dbname</title>
<polygon fill="#ffffff" stroke="transparent" points="-4,4 -4,-642 684,-642 684,4 -4,4"/>
<!-- schema_migrations -->
<g id="node1" class="node">
<title>schema_migrations</title>
<polygon fill="#efefef" stroke="transparent" points="43.5,-484.5 43.5,-519.5 340.5,-519.5 340.5,-484.5 43.5,-484.5"/>
<polygon fill="none" stroke="#000000" points="43.5,-484.5 43.5,-519.5 340.5,-519.5 340.5,-484.5 43.5,-484.5"/>
<text text-anchor="start" x="50.2076" y="-497.3" font-family="Arial Bold" font-size="18.00" fill="#000000">schema_migrations</text>
<text text-anchor="start" x="206.2244" y="-497.3" font-family="Arial" font-size="14.00" fill="#000000">    </text>
<text text-anchor="start" x="240.4292" y="-497.3" font-family="Arial" font-size="14.00" fill="#666666">[BASE TABLE]</text>
<polygon fill="none" stroke="#000000" points="43.5,-454.5 43.5,-484.5 340.5,-484.5 340.5,-454.5 43.5,-454.5"/>
<text text-anchor="start" x="50.5" y="-465.9" font-family="Arial" font-size="14.00" fill="#000000">version    </text>
<text text-anchor="start" x="129.8198" y="-465.9" font-family="Arial" font-size="14.00" fill="#666666">[bigint]</text>
<polygon fill="none" stroke="#000000" points="43.5,-424.5 43.5,-454.5 340.5,-454.5 340.5,-424.5 43.5,-424.5"/>
<text text-anchor="start" x="50.5" y="-435.9" font-family="Arial" font-size="14.00" fill="#000000">dirty    </text>
<text text-anchor="start" x="111.1452" y="-435.9" font-family="Arial" font-size="14.00" fill="#666666">[tinyint(1)]</text>
</g>
<!-- todos -->
<g id="node2" class="node">
<title>todos</title>
<polygon fill="#efefef" stroke="transparent" points="444.5,-559.5 444.5,-594.5 636.5,-594.5 636.5,-559.5 444.5,-559.5"/>
<polygon fill="none" stroke="#000000" points="444.5,-559.5 444.5,-594.5 636.5,-594.5 636.5,-559.5 444.5,-559.5"/>
<text text-anchor="start" x="454.7056" y="-572.3" font-family="Arial Bold" font-size="18.00" fill="#000000">todos</text>
<text text-anchor="start" x="498.7264" y="-572.3" font-family="Arial" font-size="14.00" fill="#000000">    </text>
<text text-anchor="start" x="532.9312" y="-572.3" font-family="Arial" font-size="14.00" fill="#666666">[BASE TABLE]</text>
<polygon fill="none" stroke="#000000" points="444.5,-529.5 444.5,-559.5 636.5,-559.5 636.5,-529.5 444.5,-529.5"/>
<text text-anchor="start" x="451.5" y="-540.9" font-family="Arial" font-size="14.00" fill="#000000">id    </text>
<text text-anchor="start" x="496.594" y="-540.9" font-family="Arial" font-size="14.00" fill="#666666">[int]</text>
<polygon fill="none" stroke="#000000" points="444.5,-499.5 444.5,-529.5 636.5,-529.5 636.5,-499.5 444.5,-499.5"/>
<text text-anchor="start" x="451.5" y="-510.9" font-family="Arial" font-size="14.00" fill="#000000">user_id    </text>
<text text-anchor="start" x="531.6024" y="-510.9" font-family="Arial" font-size="14.00" fill="#666666">[int]</text>
<polygon fill="none" stroke="#000000" points="444.5,-469.5 444.5,-499.5 636.5,-499.5 636.5,-469.5 444.5,-469.5"/>
<text text-anchor="start" x="451.5" y="-480.9" font-family="Arial" font-size="14.00" fill="#000000">title    </text>
<text text-anchor="start" x="507.4818" y="-480.9" font-family="Arial" font-size="14.00" fill="#666666">[varchar(255)]</text>
<polygon fill="none" stroke="#000000" points="444.5,-439.5 444.5,-469.5 636.5,-469.5 636.5,-439.5 444.5,-439.5"/>
<text text-anchor="start" x="451.5" y="-450.9" font-family="Arial" font-size="14.00" fill="#000000">description    </text>
<text text-anchor="start" x="553.3822" y="-450.9" font-family="Arial" font-size="14.00" fill="#666666">[text]</text>
<polygon fill="none" stroke="#000000" points="444.5,-409.5 444.5,-439.5 636.5,-439.5 636.5,-409.5 444.5,-409.5"/>
<text text-anchor="start" x="451.4453" y="-420.9" font-family="Arial" font-size="14.00" fill="#000000">is_completed    </text>
<text text-anchor="start" x="568.1101" y="-420.9" font-family="Arial" font-size="14.00" fill="#666666">[tinyint(1)]</text>
<polygon fill="none" stroke="#000000" points="444.5,-379.5 444.5,-409.5 636.5,-409.5 636.5,-379.5 444.5,-379.5"/>
<text text-anchor="start" x="451.5" y="-390.9" font-family="Arial" font-size="14.00" fill="#000000">created_at    </text>
<text text-anchor="start" x="551.8422" y="-390.9" font-family="Arial" font-size="14.00" fill="#666666">[timestamp]</text>
<polygon fill="none" stroke="#000000" points="444.5,-349.5 444.5,-379.5 636.5,-379.5 636.5,-349.5 444.5,-349.5"/>
<text text-anchor="start" x="451.5" y="-360.9" font-family="Arial" font-size="14.00" fill="#000000">updated_at    </text>
<text text-anchor="start" x="555.7468" y="-360.9" font-family="Arial" font-size="14.00" fill="#666666">[timestamp]</text>
</g>
<!-- users -->
<g id="node3" class="node">
<title>users</title>
<polygon fill="#efefef" stroke="transparent" points="442.5,-192.5 442.5,-227.5 637.5,-227.5 637.5,-192.5 442.5,-192.5"/>
<polygon fill="none" stroke="#000000" points="442.5,-192.5 442.5,-227.5 637.5,-227.5 637.5,-192.5 442.5,-192.5"/>
<text text-anchor="start" x="454.2137" y="-205.3" font-family="Arial Bold" font-size="18.00" fill="#000000">users</text>
<text text-anchor="start" x="498.2183" y="-205.3" font-family="Arial" font-size="14.00" fill="#000000">    </text>
<text text-anchor="start" x="532.4231" y="-205.3" font-family="Arial" font-size="14.00" fill="#666666">[BASE TABLE]</text>
<polygon fill="none" stroke="#000000" points="442.5,-162.5 442.5,-192.5 637.5,-192.5 637.5,-162.5 442.5,-162.5"/>
<text text-anchor="start" x="449.5" y="-173.9" font-family="Arial" font-size="14.00" fill="#000000">id    </text>
<text text-anchor="start" x="494.594" y="-173.9" font-family="Arial" font-size="14.00" fill="#666666">[int]</text>
<polygon fill="none" stroke="#000000" points="442.5,-132.5 442.5,-162.5 637.5,-162.5 637.5,-132.5 442.5,-132.5"/>
<text text-anchor="start" x="449.5" y="-143.9" font-family="Arial" font-size="14.00" fill="#000000">email    </text>
<text text-anchor="start" x="517.1438" y="-143.9" font-family="Arial" font-size="14.00" fill="#666666">[varchar(255)]</text>
<polygon fill="none" stroke="#000000" points="442.5,-102.5 442.5,-132.5 637.5,-132.5 637.5,-102.5 442.5,-102.5"/>
<text text-anchor="start" x="449.3892" y="-113.9" font-family="Arial" font-size="14.00" fill="#000000">password    </text>
<text text-anchor="start" x="543.4916" y="-113.9" font-family="Arial" font-size="14.00" fill="#666666">[varchar(255)]</text>
<polygon fill="none" stroke="#000000" points="442.5,-72.5 442.5,-102.5 637.5,-102.5 637.5,-72.5 442.5,-72.5"/>
<text text-anchor="start" x="449.5" y="-83.9" font-family="Arial" font-size="14.00" fill="#000000">created_at    </text>
<text text-anchor="start" x="549.8422" y="-83.9" font-family="Arial" font-size="14.00" fill="#666666">[timestamp]</text>
<polygon fill="none" stroke="#000000" points="442.5,-42.5 442.5,-72.5 637.5,-72.5 637.5,-42.5 442.5,-42.5"/>
<text text-anchor="start" x="449.5" y="-53.9" font-family="Arial" font-size="14.00" fill="#000000">updated_at    </text>
<text text-anchor="start" x="553.7468" y="-53.9" font-family="Arial" font-size="14.00" fill="#666666">[timestamp]</text>
</g>
<!-- todos&#45;&gt;users -->
<g id="edge1" class="edge">
<title>todos:user_id&#45;&gt;users:id</title>
<path fill="none" stroke="#000000" d="M434.818,-511.4972C401.0681,-488.4537 417.3371,-339.6981 444.5,-307 500.2571,-239.8809 581.7429,-338.1191 637.5,-271 664.0539,-239.0351 679.0556,-177.5 637.5,-177.5"/>
<polygon fill="#000000" stroke="#000000" points="434.9488,-511.5377 443.167,-518.798 439.7244,-513.0188 444.5,-514.5 444.5,-514.5 444.5,-514.5 439.7244,-513.0188 445.833,-510.202 434.9488,-511.5377 434.9488,-511.5377"/>
<text text-anchor="start" x="391.445" y="-498.5" font-family="Arial" font-size="10.00" fill="#000000">FOREIGN KEY (user_id) REFERENCES users (id)</text>
</g>
</g>
</svg>
