<?xml version="1.0" encoding="UTF-8" standalone="no"?>
<!DOCTYPE svg PUBLIC "-//W3C//DTD SVG 1.1//EN"
 "http://www.w3.org/Graphics/SVG/1.1/DTD/svg11.dtd">
<!-- Generated by graphviz version 2.40.1 (20161225.0304)
 -->
<!-- Title: todos Pages: 1 -->
<svg width="481pt" height="652pt"
 viewBox="0.00 0.00 480.50 652.00" xmlns="http://www.w3.org/2000/svg" xmlns:xlink="http://www.w3.org/1999/xlink">
<g id="graph0" class="graph" transform="scale(1 1) rotate(0) translate(4 648)">
<title>todos</title>
<polygon fill="#ffffff" stroke="transparent" points="-4,4 -4,-648 476.5,-648 476.5,4 -4,4"/>
<!-- todos -->
<g id="node1" class="node">
<title>todos</title>
<polygon fill="#efefef" stroke="transparent" points="240,-562.5 240,-597.5 425,-597.5 425,-562.5 240,-562.5"/>
<polygon fill="none" stroke="#000000" points="240,-562.5 240,-597.5 425,-597.5 425,-562.5 240,-562.5"/>
<text text-anchor="start" x="246.7056" y="-575.3" font-family="Arial Bold" font-size="18.00" fill="#000000">todos</text>
<text text-anchor="start" x="290.7264" y="-575.3" font-family="Arial" font-size="14.00" fill="#000000">    </text>
<text text-anchor="start" x="324.9312" y="-575.3" font-family="Arial" font-size="14.00" fill="#666666">[BASE TABLE]</text>
<polygon fill="none" stroke="#000000" points="240,-532.5 240,-562.5 425,-562.5 425,-532.5 240,-532.5"/>
<text text-anchor="start" x="247" y="-543.9" font-family="Arial" font-size="14.00" fill="#000000">id </text>
<text text-anchor="start" x="261.7798" y="-543.9" font-family="Arial" font-size="14.00" fill="#666666">[int]</text>
<polygon fill="none" stroke="#000000" points="240,-502.5 240,-532.5 425,-532.5 425,-502.5 240,-502.5"/>
<text text-anchor="start" x="247" y="-513.9" font-family="Arial" font-size="14.00" fill="#000000">user_id </text>
<text text-anchor="start" x="296.7882" y="-513.9" font-family="Arial" font-size="14.00" fill="#666666">[int]</text>
<polygon fill="none" stroke="#000000" points="240,-472.5 240,-502.5 425,-502.5 425,-472.5 240,-472.5"/>
<text text-anchor="start" x="247" y="-483.9" font-family="Arial" font-size="14.00" fill="#000000">title </text>
<text text-anchor="start" x="272.6676" y="-483.9" font-family="Arial" font-size="14.00" fill="#666666">[varchar(255)]</text>
<polygon fill="none" stroke="#000000" points="240,-442.5 240,-472.5 425,-472.5 425,-442.5 240,-442.5"/>
<text text-anchor="start" x="247" y="-453.9" font-family="Arial" font-size="14.00" fill="#000000">description </text>
<text text-anchor="start" x="318.568" y="-453.9" font-family="Arial" font-size="14.00" fill="#666666">[text]</text>
<polygon fill="none" stroke="#000000" points="240,-412.5 240,-442.5 425,-442.5 425,-412.5 240,-412.5"/>
<text text-anchor="start" x="247" y="-423.9" font-family="Arial" font-size="14.00" fill="#000000">is_completed </text>
<text text-anchor="start" x="333.3506" y="-423.9" font-family="Arial" font-size="14.00" fill="#666666">[tinyint(1)]</text>
<polygon fill="none" stroke="#000000" points="240,-382.5 240,-412.5 425,-412.5 425,-382.5 240,-382.5"/>
<text text-anchor="start" x="247" y="-393.9" font-family="Arial" font-size="14.00" fill="#000000">created_at </text>
<text text-anchor="start" x="317.028" y="-393.9" font-family="Arial" font-size="14.00" fill="#666666">[timestamp]</text>
<polygon fill="none" stroke="#000000" points="240,-352.5 240,-382.5 425,-382.5 425,-352.5 240,-352.5"/>
<text text-anchor="start" x="247" y="-363.9" font-family="Arial" font-size="14.00" fill="#000000">updated_at </text>
<text text-anchor="start" x="320.9326" y="-363.9" font-family="Arial" font-size="14.00" fill="#666666">[timestamp]</text>
<polygon fill="none" stroke="#000000" stroke-width="3" points="238,-351.5 238,-599.5 426,-599.5 426,-351.5 238,-351.5"/>
</g>
<!-- users -->
<g id="node2" class="node">
<title>users</title>
<polygon fill="#efefef" stroke="transparent" points="235,-192.5 235,-227.5 430,-227.5 430,-192.5 235,-192.5"/>
<polygon fill="none" stroke="#000000" points="235,-192.5 235,-227.5 430,-227.5 430,-192.5 235,-192.5"/>
<text text-anchor="start" x="246.7137" y="-205.3" font-family="Arial Bold" font-size="18.00" fill="#000000">users</text>
<text text-anchor="start" x="290.7183" y="-205.3" font-family="Arial" font-size="14.00" fill="#000000">    </text>
<text text-anchor="start" x="324.9231" y="-205.3" font-family="Arial" font-size="14.00" fill="#666666">[BASE TABLE]</text>
<polygon fill="none" stroke="#000000" points="235,-162.5 235,-192.5 430,-192.5 430,-162.5 235,-162.5"/>
<text text-anchor="start" x="242" y="-173.9" font-family="Arial" font-size="14.00" fill="#000000">id    </text>
<text text-anchor="start" x="287.094" y="-173.9" font-family="Arial" font-size="14.00" fill="#666666">[int]</text>
<polygon fill="none" stroke="#000000" points="235,-132.5 235,-162.5 430,-162.5 430,-132.5 235,-132.5"/>
<text text-anchor="start" x="242" y="-143.9" font-family="Arial" font-size="14.00" fill="#000000">email    </text>
<text text-anchor="start" x="309.6438" y="-143.9" font-family="Arial" font-size="14.00" fill="#666666">[varchar(255)]</text>
<polygon fill="none" stroke="#000000" points="235,-102.5 235,-132.5 430,-132.5 430,-102.5 235,-102.5"/>
<text text-anchor="start" x="241.8892" y="-113.9" font-family="Arial" font-size="14.00" fill="#000000">password    </text>
<text text-anchor="start" x="335.9916" y="-113.9" font-family="Arial" font-size="14.00" fill="#666666">[varchar(255)]</text>
<polygon fill="none" stroke="#000000" points="235,-72.5 235,-102.5 430,-102.5 430,-72.5 235,-72.5"/>
<text text-anchor="start" x="242" y="-83.9" font-family="Arial" font-size="14.00" fill="#000000">created_at    </text>
<text text-anchor="start" x="342.3422" y="-83.9" font-family="Arial" font-size="14.00" fill="#666666">[timestamp]</text>
<polygon fill="none" stroke="#000000" points="235,-42.5 235,-72.5 430,-72.5 430,-42.5 235,-42.5"/>
<text text-anchor="start" x="242" y="-53.9" font-family="Arial" font-size="14.00" fill="#000000">updated_at    </text>
<text text-anchor="start" x="346.2468" y="-53.9" font-family="Arial" font-size="14.00" fill="#666666">[timestamp]</text>
</g>
<!-- todos&#45;&gt;users -->
<g id="edge1" class="edge">
<title>todos:user_id&#45;&gt;users:id</title>
<path fill="none" stroke="#000000" d="M229.84,-515.3288C164.1445,-486.3721 162.9783,-177.5 235,-177.5"/>
<polygon fill="#000000" stroke="#000000" points="230.2208,-515.4101 239.0596,-521.9006 235.1104,-516.4551 240,-517.5 240,-517.5 240,-517.5 235.1104,-516.4551 240.9404,-513.0994 230.2208,-515.4101 230.2208,-515.4101"/>
<text text-anchor="start" x="6.945" y="-527.5" font-family="Arial" font-size="10.00" fill="#000000">FOREIGN KEY (user_id) REFERENCES users (id)</text>
</g>
</g>
</svg>
