<?xml version="1.0" encoding="UTF-8" standalone="no"?>
<!DOCTYPE svg PUBLIC "-//W3C//DTD SVG 1.1//EN"
 "http://www.w3.org/Graphics/SVG/1.1/DTD/svg11.dtd">
<!-- Generated by graphviz version 2.40.1 (20161225.0304)
 -->
<!-- Title: users Pages: 1 -->
<svg width="483pt" height="652pt"
 viewBox="0.00 0.00 483.00 652.00" xmlns="http://www.w3.org/2000/svg" xmlns:xlink="http://www.w3.org/1999/xlink">
<g id="graph0" class="graph" transform="scale(1 1) rotate(0) translate(4 648)">
<title>users</title>
<polygon fill="#ffffff" stroke="transparent" points="-4,4 -4,-648 479,-648 479,4 -4,4"/>
<!-- users -->
<g id="node1" class="node">
<title>users</title>
<polygon fill="#efefef" stroke="transparent" points="243,-195.5 243,-230.5 428,-230.5 428,-195.5 243,-195.5"/>
<polygon fill="none" stroke="#000000" points="243,-195.5 243,-230.5 428,-230.5 428,-195.5 243,-195.5"/>
<text text-anchor="start" x="249.7137" y="-208.3" font-family="Arial Bold" font-size="18.00" fill="#000000">users</text>
<text text-anchor="start" x="293.7183" y="-208.3" font-family="Arial" font-size="14.00" fill="#000000">    </text>
<text text-anchor="start" x="327.9231" y="-208.3" font-family="Arial" font-size="14.00" fill="#666666">[BASE TABLE]</text>
<polygon fill="none" stroke="#000000" points="243,-165.5 243,-195.5 428,-195.5 428,-165.5 243,-165.5"/>
<text text-anchor="start" x="250" y="-176.9" font-family="Arial" font-size="14.00" fill="#000000">id </text>
<text text-anchor="start" x="264.7798" y="-176.9" font-family="Arial" font-size="14.00" fill="#666666">[int]</text>
<polygon fill="none" stroke="#000000" points="243,-135.5 243,-165.5 428,-165.5 428,-135.5 243,-135.5"/>
<text text-anchor="start" x="250" y="-146.9" font-family="Arial" font-size="14.00" fill="#000000">email </text>
<text text-anchor="start" x="287.3296" y="-146.9" font-family="Arial" font-size="14.00" fill="#666666">[varchar(255)]</text>
<polygon fill="none" stroke="#000000" points="243,-105.5 243,-135.5 428,-135.5 428,-105.5 243,-105.5"/>
<text text-anchor="start" x="250" y="-116.9" font-family="Arial" font-size="14.00" fill="#000000">password </text>
<text text-anchor="start" x="313.7882" y="-116.9" font-family="Arial" font-size="14.00" fill="#666666">[varchar(255)]</text>
<polygon fill="none" stroke="#000000" points="243,-75.5 243,-105.5 428,-105.5 428,-75.5 243,-75.5"/>
<text text-anchor="start" x="250" y="-86.9" font-family="Arial" font-size="14.00" fill="#000000">created_at </text>
<text text-anchor="start" x="320.028" y="-86.9" font-family="Arial" font-size="14.00" fill="#666666">[timestamp]</text>
<polygon fill="none" stroke="#000000" points="243,-45.5 243,-75.5 428,-75.5 428,-45.5 243,-45.5"/>
<text text-anchor="start" x="250" y="-56.9" font-family="Arial" font-size="14.00" fill="#000000">updated_at </text>
<text text-anchor="start" x="323.9326" y="-56.9" font-family="Arial" font-size="14.00" fill="#666666">[timestamp]</text>
<polygon fill="none" stroke="#000000" stroke-width="3" points="241,-44.5 241,-232.5 429,-232.5 429,-44.5 241,-44.5"/>
</g>
<!-- todos -->
<g id="node2" class="node">
<title>todos</title>
<polygon fill="#efefef" stroke="transparent" points="240,-565.5 240,-600.5 432,-600.5 432,-565.5 240,-565.5"/>
<polygon fill="none" stroke="#000000" points="240,-565.5 240,-600.5 432,-600.5 432,-565.5 240,-565.5"/>
<text text-anchor="start" x="250.2056" y="-578.3" font-family="Arial Bold" font-size="18.00" fill="#000000">todos</text>
<text text-anchor="start" x="294.2264" y="-578.3" font-family="Arial" font-size="14.00" fill="#000000">    </text>
<text text-anchor="start" x="328.4312" y="-578.3" font-family="Arial" font-size="14.00" fill="#666666">[BASE TABLE]</text>
<polygon fill="none" stroke="#000000" points="240,-535.5 240,-565.5 432,-565.5 432,-535.5 240,-535.5"/>
<text text-anchor="start" x="247" y="-546.9" font-family="Arial" font-size="14.00" fill="#000000">id    </text>
<text text-anchor="start" x="292.094" y="-546.9" font-family="Arial" font-size="14.00" fill="#666666">[int]</text>
<polygon fill="none" stroke="#000000" points="240,-505.5 240,-535.5 432,-535.5 432,-505.5 240,-505.5"/>
<text text-anchor="start" x="247" y="-516.9" font-family="Arial" font-size="14.00" fill="#000000">user_id    </text>
<text text-anchor="start" x="327.1024" y="-516.9" font-family="Arial" font-size="14.00" fill="#666666">[int]</text>
<polygon fill="none" stroke="#000000" points="240,-475.5 240,-505.5 432,-505.5 432,-475.5 240,-475.5"/>
<text text-anchor="start" x="247" y="-486.9" font-family="Arial" font-size="14.00" fill="#000000">title    </text>
<text text-anchor="start" x="302.9818" y="-486.9" font-family="Arial" font-size="14.00" fill="#666666">[varchar(255)]</text>
<polygon fill="none" stroke="#000000" points="240,-445.5 240,-475.5 432,-475.5 432,-445.5 240,-445.5"/>
<text text-anchor="start" x="247" y="-456.9" font-family="Arial" font-size="14.00" fill="#000000">description    </text>
<text text-anchor="start" x="348.8822" y="-456.9" font-family="Arial" font-size="14.00" fill="#666666">[text]</text>
<polygon fill="none" stroke="#000000" points="240,-415.5 240,-445.5 432,-445.5 432,-415.5 240,-415.5"/>
<text text-anchor="start" x="246.9453" y="-426.9" font-family="Arial" font-size="14.00" fill="#000000">is_completed    </text>
<text text-anchor="start" x="363.6101" y="-426.9" font-family="Arial" font-size="14.00" fill="#666666">[tinyint(1)]</text>
<polygon fill="none" stroke="#000000" points="240,-385.5 240,-415.5 432,-415.5 432,-385.5 240,-385.5"/>
<text text-anchor="start" x="247" y="-396.9" font-family="Arial" font-size="14.00" fill="#000000">created_at    </text>
<text text-anchor="start" x="347.3422" y="-396.9" font-family="Arial" font-size="14.00" fill="#666666">[timestamp]</text>
<polygon fill="none" stroke="#000000" points="240,-355.5 240,-385.5 432,-385.5 432,-355.5 240,-355.5"/>
<text text-anchor="start" x="247" y="-366.9" font-family="Arial" font-size="14.00" fill="#000000">updated_at    </text>
<text text-anchor="start" x="351.2468" y="-366.9" font-family="Arial" font-size="14.00" fill="#666666">[timestamp]</text>
</g>
<!-- todos&#45;&gt;users -->
<g id="edge1" class="edge">
<title>todos:user_id&#45;&gt;users:id</title>
<path fill="none" stroke="#000000" d="M229.7621,-519.8875C150.4306,-509.9418 183.5356,-381.3026 240,-313 294.2049,-247.4305 373.7951,-342.5695 428,-277 455.3268,-243.9439 470.8889,-180.5 428,-180.5"/>
<polygon fill="#000000" stroke="#000000" points="230.0178,-519.9028 239.7312,-524.992 235.0089,-520.2014 240,-520.5 240,-520.5 240,-520.5 235.0089,-520.2014 240.2688,-516.008 230.0178,-519.9028 230.0178,-519.9028"/>
<text text-anchor="start" x="6.945" y="-530.5" font-family="Arial" font-size="10.00" fill="#000000">FOREIGN KEY (user_id) REFERENCES users (id)</text>
</g>
</g>
</svg>
